<?xml version="1.0" ?><svg height="24" id="svg8" version="1.1" viewBox="0 0 24 24" width="24" xmlns="http://www.w3.org/2000/svg" xmlns:cc="http://creativecommons.org/ns#" xmlns:dc="http://purl.org/dc/elements/1.1/" xmlns:rdf="http://www.w3.org/1999/02/22-rdf-syntax-ns#" xmlns:svg="http://www.w3.org/2000/svg"><defs id="defs2"/><g id="g1307" style="display:inline" transform="translate(0,-290.65039)"><path d="m 12,292.65039 c -5.511,0 -10,4.489 -10,10 0,5.511 4.489,10 10,10 5.511,0 10,-4.489 10,-10 0,-5.511 -4.489,-10 -10,-10 z m 0,2 c 4.43012,0 8,3.56988 8,8 0,4.43012 -3.56988,8 -8,8 -4.43012,0 -8,-3.56988 -8,-8 0,-4.43012 3.56988,-8 8,-8 z" id="path1301" style="color:#4b4e52;font-style:normal;font-variant:normal;font-weight:normal;font-stretch:normal;font-size:medium;line-height:normal;font-family:sans-serif;font-variant-ligatures:normal;font-variant-position:normal;font-variant-caps:normal;font-variant-numeric:normal;font-variant-alternates:normal;font-variant-east-asian:normal;font-feature-settings:normal;font-variation-settings:normal;text-indent:0;text-align:start;text-decoration:none;text-decoration-line:none;text-decoration-style:solid;text-decoration-color:#4b4e52;letter-spacing:normal;word-spacing:normal;text-transform:none;writing-mode:lr-tb;direction:ltr;text-orientation:mixed;dominant-baseline:auto;baseline-shift:baseline;text-anchor:start;white-space:normal;shape-padding:0;shape-margin:0;inline-size:0;clip-rule:nonzero;display:inline;overflow:visible;visibility:visible;opacity:1;isolation:auto;mix-blend-mode:normal;color-interpolation:sRGB;color-interpolation-filters:linearRGB;solid-color:#4b4e52;solid-opacity:1;vector-effect:none;fill:#4b4e52;fill-opacity:1;fill-rule:nonzero;stroke:none;stroke-linecap:round;stroke-linejoin:round;stroke-miterlimit:4;stroke-dasharray:none;stroke-dashoffset:0;stroke-opacity:1;color-rendering:auto;image-rendering:auto;shape-rendering:auto;text-rendering:auto;enable-background:accumulate;stop-color:#4b4e52;stop-opacity:1"/><path d="m 12,296.65039 a 1,1 0 0 0 -1,1 v 4.96875 a 1.0001,1.0001 0 0 0 0.29492,0.70898 l 3,2.98047 a 1,1 0 0 0 1.41406,-0.004 1,1 0 0 0 -0.004,-1.41407 L 13,302.20312 v -4.55273 a 1,1 0 0 0 -1,-1 z" id="path1303" style="color:#4b4e52;font-style:normal;font-variant:normal;font-weight:normal;font-stretch:normal;font-size:medium;line-height:normal;font-family:sans-serif;font-variant-ligatures:normal;font-variant-position:normal;font-variant-caps:normal;font-variant-numeric:normal;font-variant-alternates:normal;font-variant-east-asian:normal;font-feature-settings:normal;font-variation-settings:normal;text-indent:0;text-align:start;text-decoration:none;text-decoration-line:none;text-decoration-style:solid;text-decoration-color:#4b4e52;letter-spacing:normal;word-spacing:normal;text-transform:none;writing-mode:lr-tb;direction:ltr;text-orientation:mixed;dominant-baseline:auto;baseline-shift:baseline;text-anchor:start;white-space:normal;shape-padding:0;shape-margin:0;inline-size:0;clip-rule:nonzero;display:inline;overflow:visible;visibility:visible;opacity:1;isolation:auto;mix-blend-mode:normal;color-interpolation:sRGB;color-interpolation-filters:linearRGB;solid-color:#4b4e52;solid-opacity:1;vector-effect:none;fill:#4b4e52;fill-opacity:1;fill-rule:nonzero;stroke:none;stroke-linecap:round;stroke-linejoin:round;stroke-miterlimit:4;stroke-dasharray:none;stroke-dashoffset:0;stroke-opacity:1;color-rendering:auto;image-rendering:auto;shape-rendering:auto;text-rendering:auto;enable-background:accumulate;stop-color:#4b4e52;stop-opacity:1"/></g></svg>